<?xml version="1.0" encoding="utf-8"?>
<!-- Generator: Adobe Illustrator 25.0.0, SVG Export Plug-In . SVG Version: 6.00 Build 0)  -->
<svg version="1.1" xmlns="http://www.w3.org/2000/svg" xmlns:xlink="http://www.w3.org/1999/xlink" x="0px" y="0px"
	 viewBox="0 0 2500 2500" style="enable-background:new 0 0 2500 2500;" xml:space="preserve">
<style type="text/css">
	.st0{fill:#FFFFFF;}
</style>
<g id="Background">
</g>
<g id="Illustration">
	<g>
		<g>
			<path class="st0" d="M19.36,1265.44c0-417.13,0-834.25,0-1251.44c808.2,0,1616.39,0,2424.6,0c0.48,9.52,0.49,2443.3,0,2453.04
				c-807.92,0-1615.84,0-2423.76,0c-0.28,0-0.56-0.07-0.84-0.11c0-380.66,0-761.32,0-1141.98c0.59,0.73,1.39,1.38,1.72,2.21
				c1.32,3.32,1.44,6.86,1.53,10.38c0.43,16.95,1.12,33.89,2.42,50.8c0.86,11.16,1.46,22.35,2.59,33.48
				c1.97,19.4,4.08,38.79,6.7,58.13c2.97,21.87,6.41,43.66,10.44,65.34c6.25,33.64,13.79,67,22.65,100.06
				c19,70.88,43.69,139.7,74.82,206.18c39.65,84.7,88.49,163.65,148.14,235.79c63.07,76.27,135.93,141.58,219.19,195.18
				c108.58,69.9,226.78,116.05,352.93,142.45c18.15,3.8,36.39,7.15,54.7,10.11c17.05,2.75,34.1,5.47,51.26,7.44
				c6.67,0.76,13.33,1.63,20.01,2.33c9.86,1.03,19.72,2.17,29.6,2.88c15.63,1.12,31.28,2.01,46.94,2.78
				c26.87,1.32,53.74,1.28,80.61,0.75c9.59-0.19,19.18-0.89,28.76-1.37c1.27-0.06,1.85-0.95,1.87-2.67c0.03-2.12,0.8-2.95,2.5-2.65
				c4.72,0.84,9.43,1.74,14.16,2.51c2.84,0.46,5.71,0.99,8.56,0.98c5.11-0.01,10.24-0.16,15.32-0.66
				c15.28-1.49,30.54-3.18,45.8-4.79c18.45-1.96,36.78-4.77,55.11-7.65c22.44-3.53,44.75-7.72,66.94-12.49
				c47.55-10.22,94.44-22.91,140.64-38.12c22.78-7.5,45.39-15.48,67.7-24.3c1.77-0.7,3.48-1.56,5.13-2.51
				c0.4-0.23,0.73-1.15,0.6-1.63c-0.41-1.53-0.94-3.05-1.61-4.49c-7.96-17.1-15.96-34.19-23.96-51.27
				c-0.68-1.45-1.41-2.87-2.17-4.27c-0.84-1.55-2.31-2.16-3.97-2.24c-1.59-0.07-3.2-0.04-4.79,0.11
				c-6.69,0.61-13.38,1.18-20.05,1.96c-10.78,1.25-10.75,1.31-11.53-9.12c-0.81-10.84-1.65-21.69-2.53-32.52
				c-0.73-8.92-1.54-17.84-2.33-26.76c-0.98-11.15-1.99-22.3-2.93-33.45c-0.89-10.52-1.69-21.04-2.58-31.56
				c-0.67-7.97-1.39-15.93-2.11-23.89c-0.95-10.51-1.97-21.01-2.89-31.53c-0.91-10.51-1.71-21.04-2.61-31.55
				c-0.68-7.97-1.43-15.93-2.17-23.89c-0.95-10.19-1.97-20.37-2.89-30.56c-0.92-10.19-1.72-20.4-2.62-30.59
				c-0.68-7.65-1.41-15.29-2.15-22.93c-0.96-9.87-1.99-19.73-2.93-29.6c-1.54-16.24-3.01-32.48-4.55-48.72c-0.66-7-1.4-14-2.14-21
				c-0.98-9.22-1.99-18.44-2.99-27.66c-1.48-13.67-2.75-27.37-4.5-41c-2.32-18.08-5.85-35.96-10.04-53.71
				c-7.94-33.63-17.91-66.67-28.84-99.43c-15.39-46.11-32.64-91.54-50.9-136.58c-23.2-57.19-47.89-113.74-74.05-169.64
				c-2.62-5.6-5.95-10.46-10.49-14.68c-17.14-15.94-35.26-30.62-54.93-43.34c-11.57-7.49-23.56-14.21-36.35-19.39
				c-4.19-1.7-8.02-3.86-11.67-6.51c-7.01-5.08-14.47-9.45-22.55-12.62c-3.26-1.28-6.61-2.42-10.01-3.25
				c-9.12-2.2-17.07,0.36-23.97,6.46c-3.38,2.98-6.19,6.52-8.46,10.38c-3.56,6.06-7.08,12.16-10.21,18.45
				c-5.27,10.6-9.58,21.63-13.68,32.73c-11.18,30.32-20.37,61.26-28.95,92.4c-17.4,63.2-32.13,127.05-45.97,191.11
				c-6.21,28.74-12.02,57.58-18.03,86.36c-0.65,3.1-1.44,6.18-2.16,9.25c-1.77,1.17-3.37,2.21-4.96,3.27
				c-4.88,3.24-8.85,7.4-11.78,12.44c-2.08,3.58-4.01,7.3-5.52,11.15c-1.62,4.15-2.7,8.52-3.96,12.8c-0.53,1.83-0.77,3.77-2.3,5.14
				c-0.23-0.09-0.58-0.12-0.64-0.27c-0.85-2.06-1.76-4.1-2.45-6.21c-5.07-15.5-10.62-30.83-17.26-45.74
				c-4.95-11.11-10.43-21.95-17.16-32.12c-3.54-5.35-7.39-10.45-11.81-15.1c-3.54-3.73-7.4-7.09-11.82-9.73
				c-3.86-2.31-7.94-4.06-12.48-4.7c-10.04-1.42-19.04,1.01-27.1,7.07c-4.9,3.68-8.98,8.17-12.55,13.13
				c-4.32,5.99-7.81,12.45-10.89,19.15c-7.4,16.08-12.26,32.95-15.21,50.35c-3.69,21.79-5.58,43.77-5.97,65.87
				c-0.61,34.57,0.5,69.07,3.36,103.54c1.69,20.4,3.51,40.78,5.95,61.11c0.61,5.08,1.24,10.16,1.77,15.24
				c0.16,1.56,0.03,3.15,0.03,4.68c-1.63,0.4-2.46-0.54-3.21-1.61c-5.86-8.39-11.7-16.8-17.58-25.18
				c-29.42-41.89-59.34-83.41-90.88-123.75c-15.38-19.66-31.14-39.01-47.92-57.5c-8.6-9.48-17.56-18.6-27.05-27.22
				c-11.58-10.51-24.8-17.84-39.79-22.36c-17.52-5.28-35.41-8.58-53.48-11.08c-13.94-1.93-27.93-3.38-41.97-4.49
				c-19.78-1.56-39.56-3.01-59.4-3.47c-3.84-0.09-7.68-0.25-11.51-0.46c-2.19-0.12-3.67-1.57-3.71-3.57c-0.05-3.2-0.07-6.4,0-9.59
				c0.34-15.35,0.76-30.7,1.05-46.05c0.88-47.02,1.71-94.03,2.56-141.05c0.02-0.96-0.04-1.93,0.07-2.88
				c0.3-2.53,0.52-5.08,1.05-7.56c0.73-3.44,1.7-6.82,2.59-10.23c0.16-0.61,0.43-1.2,0.64-1.8c0.27-0.75,1.79-1.3,2.42-0.81
				c2.5,1.97,5.05,3.89,7.45,5.98c21.23,18.52,42.99,36.37,66.03,52.61c14.66,10.33,29.76,19.94,45.75,28.11
				c10.56,5.39,21.39,10.11,32.74,13.59c11.71,3.6,23.6,5.67,35.91,5.16c12.82-0.53,24.56-4.23,34.85-11.93
				c4.85-3.63,9.47-7.62,13.92-11.74c6.81-6.31,12.99-13.25,18.97-20.35c15.48-18.38,29.42-37.9,42.8-57.83
				c20.33-30.29,39.16-61.51,57.28-93.16c1.27-2.22,2.49-4.47,3.83-6.65c5.79-9.47,14.4-14.23,25.35-14.97
				c2.55-0.17,5.12-0.1,7.68-0.13c12.48-0.13,24.98,0.17,37.43-0.48c28.82-1.51,41.05-29.09,35.83-46.64
				c-0.64-2.14-1.15-4.32-1.75-6.48c-4.28-15.47-6.74-31.26-7.95-47.23c-1.02-13.41-1.05-26.87-0.05-40.28
				c1.04-14.05,3.31-27.94,7.48-41.45c4.67-15.15,11.63-29.01,22.34-40.92c8.79-9.78,16.22-20.6,23.09-31.8
				c7.37-12.01,13.84-24.5,19.66-37.32c14.33-31.56,24.76-64.43,32.54-98.15c1.52-6.59,3.1-13.05,7.34-18.51
				c10.31-18.15,15.98-37.58,16.24-58.51c0.11-8.97-0.7-17.86-1.88-26.76c-2.28-17.13-5.23-34.14-8.86-51.01
				c-7.75-36.03-18.5-71.14-32.69-105.17c-0.61-1.47-1.29-2.95-1.65-4.49c-0.19-0.84-0.06-2.03,0.43-2.7
				c1.29-1.81,2.8-3.48,4.32-5.12c11.48-12.48,22.99-24.93,34.48-37.4c1.73-1.88,3.59-3.69,5.05-5.77
				c3.45-4.94,5.05-10.34,2.97-16.31c-1.16-3.32-2.34-6.63-3.7-9.87c-5.96-14.17-13.12-27.74-20.87-41.01
				c-15.05-25.75-32.32-49.93-51.2-72.99c-30.92-37.75-65.6-71.74-103.04-102.98c-3.22-2.69-6.67-4.94-10.43-6.77
				c-17.24-8.42-34.38-17.06-51.72-25.26c-82.74-39.12-167.09-74.33-253.75-103.91c-1.48-0.51-2.84-1.34-4.26-2.03
				c1.22-3.26,4.18-4.21,6.49-5.77c45.97-30.98,93.98-58.39,144.12-82.02c44.89-21.16,91.08-39.02,138.48-53.73
				c2.74-0.85,5.48-1.72,8.18-2.7c0.44-0.16,0.65-0.98,0.97-1.49c2.36,0.44,4.66,0.67,6.45-1.41c2.93-0.33,5.87-0.66,8.8-0.99
				c0.75-0.47,1.45-1.18,2.27-1.35c1.43-0.3,1.91-1.39,2.54-2.42c0.93,0.08,1.86,0.12,2.77,0.26c0.95,0.15,1.27-0.07,0.83-0.71
				c-0.08-0.12-0.58,0.06-0.88,0.09c-0.89,0.11-1.79,0.21-2.68,0.31c-0.47,0.3-0.94,0.84-1.42,0.85c-2.06,0.06-2.88,1.31-3.35,3.03
				c-1.58-0.32-3.11-0.73-4.66-0.85c-1.66-0.13-3.07,0.54-4.03,1.97c-2.33-0.32-4.67-0.72-6.45,1.41c-2.92-0.11-5.66,0.65-8.46,1.41
				c-25.91,7.11-51.37,15.6-76.59,24.85c-70.82,25.96-137.99,59.37-201.95,99.28c-7.05,4.4-14.05,8.91-21.02,13.44
				c-1.93,1.25-3.82,2.23-6.23,1.91c-1.71-0.23-3.06,0.82-4.34,1.76c-9.8,7.19-19.57,14.42-29.34,21.66
				c-0.77,0.57-1.71,1.08-2.17,1.86c-2.59,4.28-6.85,6.63-10.67,9.48c-14.12,10.5-28.24,21-41.62,32.44
				c-27.5,23.5-54.03,48.03-79.45,73.77c-54.56,55.25-103.5,115.07-146.6,179.67c-2.13,3.19-4.25,6.39-6.32,9.62
				c-1.6,2.49-1.25,3.9,1.34,5.5c1.08,0.67,2.23,1.24,3.38,1.78c0.98,0.46,1.96,0.14,2.56-0.61c1.19-1.49,2.29-3.07,3.32-4.68
				c9.07-14.33,18.73-28.26,28.76-41.93c65.33-88.98,141.53-167.5,227.86-236.24c8.76-6.97,17.76-13.63,26.61-20.49
				c1.96-1.52,3.99-1.87,6.28-1.09c6.36,2.14,12.73,4.26,19.09,6.41c65.16,22.04,129.05,47.35,192.06,74.89
				c38.09,16.65,75.81,34.1,113.05,52.6c4.91,2.44,9.35,5.42,13.53,8.97c18.31,15.54,35.9,31.84,52.7,48.99
				c24.9,25.42,47.77,52.53,68.04,81.8c12.58,18.17,24.1,36.97,33.78,56.86c4.08,8.38,4.2,7.08-2.12,13.94
				c-32.53,35.28-65.07,70.56-97.6,105.84C800.61,866.64,681.34,996,562.06,1125.36c-21.04,22.81-42.03,45.67-63.14,68.41
				c-4.05,4.37-6.49,9.19-7.61,15.11c-3.69,19.47-7.64,38.89-11.78,58.27c-9.95,46.58-20.48,93.02-31.78,139.29
				c-16.31,66.77-34.05,133.15-53.99,198.94c-16.14,53.24-33.75,105.98-53.79,157.9c-5.88,15.23-12.48,30.14-20.3,44.47
				c-6.74,12.35-13.59,24.65-20.88,36.67c-24.59,40.54-52.43,78.81-81.64,116.1c-0.59,0.75-1.24,1.46-1.87,2.18
				c-0.94,1.07-2.53,1.08-3.27-0.03c-1.59-2.4-3.17-4.79-4.68-7.24c-38.11-62.03-69.71-127.26-95.65-195.25
				c-2.81-7.38-3.29-6.36,1.3-14.13c20.35-34.43,39.12-69.7,56.57-105.68c35.77-73.75,65.91-149.78,91.77-227.52
				c32.84-98.71,59.14-199.13,77.94-301.47c0.92-5.03,1.96-10.07,2.34-15.15c0.72-9.49-6.14-17.85-15.13-19.2
				c-12.03-1.82-19.62,6.39-21.12,13.75c-0.45,2.19-0.98,4.37-1.35,6.58c-5.08,29.63-11.47,58.99-18.34,88.24
				c-19.6,83.47-43.51,165.68-72.27,246.47c-23.5,66.02-50.14,130.72-80.94,193.69c-11.38,23.27-23.31,46.26-36,68.85
				c-1.09,1.93-2.34,3.78-3.65,5.58c-0.24,0.33-1.11,0.21-1.93,0.34c-0.74-2.05-1.58-4.12-2.25-6.24
				c-8.52-26.81-16.2-53.87-22.97-81.18c-13.79-55.62-23.74-111.93-30.51-168.82c-0.87-7.3-1.61-14.62-2.26-21.95
				c-0.94-10.51-1.87-21.03-2.6-31.55c-1.08-15.63-2.31-31.27-2.9-46.92c-0.99-26.21-1.11-52.44-0.85-78.68
				c0.23-23.68,1.24-47.33,2.86-70.94c1.27-18.5,2.94-36.97,4.97-55.42c1.93-17.48,4.12-34.93,6.7-52.32
				c3.04-20.55,6.63-41.01,10.65-61.41c6.3-31.98,13.7-63.7,22.31-95.14c2.44-8.93,4.85-17.86,7.25-26.81
				c2.32-5.09,3.41-10.58,5.08-15.87c0.36-1.14,0.15-2.46,0.2-3.7c0.54-0.66,1.33-1.23,1.59-1.98c0.38-1.13,0.39-2.38,0.55-3.59
				c1.88-1.36,1.39-3.69,2.23-5.49c0.56-1.99,1.14-3.95,1.71-5.92c0.76-1.8,1.53-3.59,2.27-5.41c0.54-2.02,1.11-4,1.66-6
				c1.43-1.7,1.3-3.88,1.78-5.87c1.8-1.77,1.48-4.02,1.38-6.21c0.59-0.46,1.34-0.82,1.72-1.42c0.43-0.66,0.53-1.53,0.78-2.31
				c0.49-1.06,0.91-2.16,1.48-3.17c0.25-0.45,0.79-0.75,1.2-1.12c-0.23-2.26,0.16-4.35,1.72-6.14c0.27-2.3,0.57-4.55,0.87-6.8
				c2.02-0.83,1.68-2.73,1.98-4.35c0.97-1.35,1.95-2.7,2.9-4.11c0.01-0.58-0.09-1.15,0.09-1.63c0.33-0.89,0.22-1.12-0.47-0.65
				c-0.11,0.08,0,0.53,0.04,0.8c0.09,0.55,0.22,1.09,0.33,1.64c-2.18,0.59-2.6,2.28-2.62,4.22c-1.89,0.88-1.7,2.72-1.99,4.34
				c-2.01,2.01-1.89,4.32-1,6.76c-1.88,0.78-3.04,1.91-2.19,4.15c0.21,0.56,0.22,1.19,0.32,1.79c-2.6,1.11-2.6,1.11-2.49,3.63
				c0.01,0.29,0.07,0.58,0.09,0.86c-1.38,0-2.06,0.75-2.25,2.04c-0.08,0.57-0.17,1.14-0.26,1.71c-1.91,1.74-1.91,3.92-1.42,6.2
				c-2.89,1.26-2.29,3.58-1.78,5.87c-1.32,0.3-2.25,1.06-2.22,2.45c0.02,1.18,0.35,2.36,0.55,3.54c-1.75,0.16-2.61,1.19-2.61,2.88
				c0,0.86,0.26,1.72,0.4,2.58c-0.96,0.09-1.76,0.48-2.07,1.44c-0.48,1.5-0.46,3,0.3,4.44c-1.33,0.04-2.26,0.67-2.37,2.02
				c-0.09,1.14,0.09,2.3,0.15,3.45c-0.87,0.13-1.73,0.45-1.87,1.37c-0.21,1.37-0.19,2.78-0.27,4.18c-0.28,0.14-0.7,0.2-0.81,0.42
				c-2.53,4.94-3.81,10.29-5.16,15.62c-0.31,1.22,0.04,2.44,0.68,3.54c-0.57,0.13-1.51,0.09-1.66,0.41
				c-0.92,2.01-1.83,4.06-2.45,6.18c-8.81,30.3-16.9,60.78-23.67,91.62c-4.65,21.19-8.83,42.46-12.53,63.83
				c-2.34,13.51-4.39,27.08-6.27,40.67c-1.75,12.64-3.26,25.32-4.6,38.01c-1.77,16.82-3.6,33.64-4.81,50.5
				c-1.28,17.82-2.57,35.66-2.74,53.54c-0.03,2.87-0.1,5.75-0.39,8.61c-0.22,2.2-0.71,4.4-1.31,6.54
				C20.85,1264.09,19.95,1264.72,19.36,1265.44z M135.48,757.5c0.51,0.64,0.4,1.23-0.36,1.31c-0.29,0.03-0.72-0.68-0.96-1.11
				c-0.1-0.17,0.06-0.63,0.24-0.79c0.58-0.49,1.06-0.33,1.32,0.41c-0.47-0.11-0.95-0.2-1.39-0.37c-0.07-0.03,0-0.66,0.03-0.66
				c0.46-0.03,1.05-0.17,1.37,0.05C136.29,756.71,136.13,757.21,135.48,757.5z M129.71,771.14c0.02,0.28,0.17,0.7,0.04,0.82
				c-0.56,0.51-1.06,0.33-1.2-0.45c-0.14-0.72,0.25-1.18,0.94-1.17c0.17,0,0.34,0.41,0.46,0.64c-0.74,0.3-1.3,0.06-1.28-0.71
				c0.01-0.73,0.6-0.92,1.25-0.44C130.49,770.28,130.38,770.77,129.71,771.14z M123.8,784.9c0.02,0.71-0.29,0.94-0.89,0.59
				c-0.11-0.07-0.12-0.52-0.02-0.69c0.37-0.61,0.79-0.59,1.11-0.01c-0.57-0.37-1.57-0.69-0.13-1.26
				C123.86,783.99,123.83,784.45,123.8,784.9z M118.52,791.86c0.18-0.17,0.33-0.4,0.55-0.5c0.13-0.06,0.35,0.1,0.53,0.15
				c-0.41,0.13-0.82,0.26-1.2,0.4c0.05,0.55,0.1,1.1,0.15,1.65C118.54,793,118.53,792.43,118.52,791.86z M114.63,801.4
				c0.53-0.14,1.05-0.28,1.58-0.42c0,0-1.67,0.47-1.66,0.48c0.11,0.27,0.27,0.54,0.3,0.81c0.02,0.26-0.1,0.54-0.16,0.81
				C114.67,802.52,114.65,801.96,114.63,801.4z M894.38,105.21l-0.66-0.35l-0.14,0.47L894.38,105.21z"/>
			<path d="M19.36,1265.44c0.59-0.72,1.49-1.35,1.72-2.18c0.61-2.13,1.09-4.33,1.31-6.54c0.29-2.85,0.36-5.74,0.39-8.61
				c0.16-17.89,1.46-35.72,2.74-53.54c1.21-16.86,3.03-33.68,4.81-50.5c1.34-12.69,2.85-25.37,4.6-38.01
				c1.88-13.59,3.94-27.15,6.27-40.67c3.69-21.37,7.87-42.64,12.53-63.83c6.77-30.83,14.86-61.32,23.67-91.62
				c0.62-2.12,1.53-4.17,2.45-6.18c0.15-0.32,1.09-0.28,1.66-0.41c0,0-0.2-0.19-0.2-0.19c-2.42,8.93-4.83,17.87-7.27,26.79
				c-8.61,31.44-16.01,63.16-22.31,95.14c-4.02,20.39-7.6,40.86-10.65,61.41c-2.58,17.39-4.77,34.84-6.7,52.32
				c-2.03,18.44-3.7,36.92-4.97,55.42c-1.62,23.61-2.63,47.26-2.86,70.94c-0.26,26.23-0.13,52.47,0.85,78.68
				c0.59,15.65,1.82,31.29,2.9,46.92c0.73,10.53,1.66,21.04,2.6,31.55c0.66,7.32,1.39,14.65,2.26,21.95
				c6.76,56.89,16.72,113.2,30.51,168.82c6.77,27.31,14.45,54.36,22.97,81.18c0.67,2.12,1.51,4.19,2.25,6.24
				c0.82-0.12,1.69,0,1.93-0.34c1.31-1.79,2.56-3.64,3.65-5.58c12.69-22.59,24.61-45.58,36-68.85
				c30.8-62.97,57.44-127.67,80.94-193.69c28.76-80.79,52.67-163,72.27-246.47c6.87-29.25,13.25-58.61,18.34-88.24
				c0.38-2.21,0.91-4.38,1.35-6.58c1.5-7.36,9.1-15.56,21.12-13.75c8.98,1.36,15.85,9.71,15.13,19.2
				c-0.39,5.08-1.42,10.13-2.34,15.15c-18.8,102.34-45.1,202.76-77.94,301.47c-25.86,77.74-56,153.77-91.77,227.52
				c-17.45,35.98-36.23,71.25-56.57,105.68c-4.59,7.77-4.11,6.75-1.3,14.13c25.94,67.99,57.54,133.21,95.65,195.25
				c1.5,2.45,3.09,4.85,4.68,7.24c0.74,1.11,2.32,1.1,3.27,0.03c0.63-0.72,1.28-1.43,1.87-2.18c29.21-37.3,57.05-75.57,81.64-116.1
				c7.29-12.02,14.14-24.33,20.88-36.67c7.82-14.33,14.42-29.23,20.3-44.47c20.04-51.92,37.66-104.66,53.79-157.9
				c19.94-65.79,37.68-132.16,53.99-198.94c11.3-46.27,21.83-92.71,31.78-139.29c4.14-19.38,8.09-38.81,11.78-58.27
				c1.12-5.92,3.56-10.74,7.61-15.11c21.11-22.75,42.1-45.6,63.14-68.41C681.34,996,800.61,866.64,919.89,737.28
				c32.53-35.28,65.07-70.55,97.6-105.84c6.32-6.86,6.2-5.55,2.12-13.94c-9.67-19.89-21.2-38.69-33.78-56.86
				c-20.27-29.27-43.14-56.38-68.04-81.8c-16.8-17.15-34.39-33.45-52.7-48.99c-4.18-3.55-8.62-6.53-13.53-8.97
				c-37.24-18.49-74.96-35.94-113.05-52.6c-63.01-27.54-126.9-52.85-192.06-74.89c-6.36-2.15-12.73-4.27-19.09-6.41
				c-2.3-0.77-4.33-0.42-6.28,1.09c-8.85,6.86-17.85,13.52-26.61,20.49c-86.33,68.74-162.53,147.25-227.86,236.24
				c-10.03,13.67-19.69,27.6-28.76,41.93c-1.02,1.62-2.12,3.19-3.32,4.68c-0.61,0.76-1.59,1.07-2.56,0.61
				c-1.15-0.54-2.3-1.11-3.38-1.78c-2.58-1.61-2.93-3.01-1.34-5.5c2.07-3.23,4.19-6.43,6.32-9.62
				c43.1-64.59,92.04-124.42,146.6-179.67c25.42-25.74,51.96-50.27,79.45-73.77c13.39-11.44,27.51-21.94,41.62-32.44
				c3.82-2.84,8.09-5.2,10.67-9.48c0.47-0.78,1.41-1.29,2.17-1.86c9.77-7.23,19.54-14.46,29.34-21.66c1.27-0.94,2.63-1.99,4.34-1.76
				c2.41,0.32,4.3-0.66,6.23-1.91c6.97-4.53,13.96-9.04,21.02-13.44c63.96-39.92,131.13-73.32,201.95-99.28
				c25.21-9.24,50.67-17.74,76.59-24.85c2.8-0.77,5.54-1.53,8.46-1.41c0,0-0.19-0.21-0.19-0.21c-0.32,0.52-0.52,1.33-0.96,1.5
				c-2.69,0.99-5.43,1.85-8.18,2.7c-47.4,14.71-93.59,32.56-138.48,53.73c-50.14,23.64-98.16,51.05-144.12,82.02
				c-2.32,1.56-5.28,2.51-6.49,5.77c1.42,0.68,2.78,1.52,4.26,2.03c86.65,29.58,171,64.79,253.75,103.91
				c17.35,8.2,34.48,16.84,51.72,25.26c3.76,1.83,7.21,4.08,10.43,6.77c37.44,31.23,72.12,65.23,103.04,102.98
				c18.88,23.05,36.16,47.24,51.2,72.99c7.75,13.26,14.91,26.83,20.87,41.01c1.36,3.24,2.54,6.55,3.7,9.87
				c2.08,5.97,0.49,11.37-2.97,16.31c-1.46,2.08-3.32,3.89-5.05,5.77c-11.49,12.47-23,24.93-34.48,37.4
				c-1.51,1.64-3.02,3.31-4.32,5.12c-0.48,0.68-0.62,1.86-0.43,2.7c0.36,1.54,1.03,3.02,1.65,4.49
				c14.2,34.03,24.94,69.14,32.69,105.17c3.63,16.88,6.57,33.89,8.86,51.01c1.19,8.91,2,17.79,1.88,26.76
				c-0.26,20.93-5.93,40.37-16.24,58.51c-4.24,5.46-5.82,11.92-7.34,18.51c-7.78,33.73-18.2,66.59-32.54,98.15
				c-5.82,12.82-12.3,25.31-19.66,37.32c-6.87,11.2-14.3,22.02-23.09,31.8c-10.71,11.91-17.67,25.77-22.34,40.92
				c-4.17,13.51-6.44,27.4-7.48,41.45c-0.99,13.41-0.96,26.87,0.05,40.28c1.21,15.96,3.67,31.76,7.95,47.23
				c0.6,2.16,1.11,4.33,1.75,6.48c5.22,17.55-7.01,45.13-35.83,46.64c-12.45,0.65-24.95,0.35-37.43,0.48
				c-2.56,0.03-5.13-0.05-7.68,0.13c-10.94,0.74-19.56,5.49-25.35,14.97c-1.33,2.18-2.55,4.43-3.83,6.65
				c-18.13,31.65-36.95,62.87-57.28,93.16c-13.38,19.93-27.32,39.45-42.8,57.83c-5.98,7.1-12.16,14.04-18.97,20.35
				c-4.45,4.12-9.07,8.11-13.92,11.74c-10.29,7.7-22.03,11.39-34.85,11.93c-12.31,0.51-24.2-1.56-35.91-5.16
				c-11.35-3.49-22.18-8.21-32.74-13.59c-15.99-8.16-31.09-17.78-45.75-28.11c-23.04-16.24-44.8-34.09-66.03-52.61
				c-2.4-2.09-4.95-4.01-7.45-5.98c-0.63-0.49-2.15,0.05-2.42,0.81c-0.22,0.6-0.48,1.18-0.64,1.8c-0.89,3.4-1.86,6.79-2.59,10.23
				c-0.53,2.48-0.75,5.03-1.05,7.56c-0.11,0.95-0.06,1.92-0.07,2.88c-0.85,47.02-1.68,94.03-2.56,141.05
				c-0.29,15.35-0.72,30.7-1.05,46.05c-0.07,3.2-0.05,6.4,0,9.59c0.03,2,1.52,3.45,3.71,3.57c3.83,0.21,7.67,0.37,11.51,0.46
				c19.84,0.46,39.62,1.91,59.4,3.47c14.04,1.11,28.03,2.56,41.97,4.49c18.06,2.5,35.96,5.8,53.48,11.08
				c14.98,4.51,28.21,11.85,39.79,22.36c9.49,8.61,18.45,17.74,27.05,27.22c16.78,18.49,32.54,37.84,47.92,57.5
				c31.54,40.33,61.46,81.85,90.88,123.75c5.88,8.38,11.72,16.79,17.58,25.18c0.75,1.07,1.58,2.01,3.21,1.61
				c0-1.52,0.14-3.11-0.03-4.68c-0.53-5.09-1.16-10.16-1.77-15.24c-2.44-20.32-4.26-40.7-5.95-61.11
				c-2.86-34.47-3.97-68.97-3.36-103.54c0.39-22.1,2.28-44.08,5.97-65.87c2.95-17.41,7.81-34.27,15.21-50.35
				c3.08-6.7,6.57-13.16,10.89-19.15c3.58-4.96,7.66-9.45,12.55-13.13c8.05-6.06,17.05-8.49,27.1-7.07
				c4.54,0.64,8.62,2.39,12.48,4.7c4.42,2.64,8.28,6,11.82,9.73c4.42,4.65,8.27,9.75,11.81,15.1c6.73,10.17,12.21,21,17.16,32.12
				c6.64,14.91,12.19,30.24,17.26,45.74c0.69,2.11,1.61,4.15,2.45,6.21c0.06,0.15,0.41,0.18,0.64,0.27c1.53-1.37,1.76-3.31,2.3-5.14
				c1.25-4.29,2.34-8.65,3.96-12.8c1.51-3.85,3.43-7.57,5.52-11.15c2.93-5.03,6.9-9.19,11.78-12.44c1.59-1.06,3.19-2.1,4.96-3.27
				c0.72-3.07,1.51-6.15,2.16-9.25c6.01-28.79,11.82-57.62,18.03-86.36c13.84-64.06,28.57-127.91,45.97-191.11
				c8.57-31.14,17.76-62.08,28.95-92.4c4.1-11.1,8.41-22.13,13.68-32.73c3.13-6.29,6.65-12.39,10.21-18.45
				c2.27-3.87,5.08-7.4,8.46-10.38c6.9-6.09,14.86-8.66,23.97-6.46c3.4,0.82,6.75,1.97,10.01,3.25c8.09,3.17,15.54,7.54,22.55,12.62
				c3.66,2.65,7.48,4.81,11.67,6.51c12.79,5.18,24.78,11.9,36.35,19.39c19.67,12.73,37.79,27.4,54.93,43.34
				c4.54,4.22,7.87,9.08,10.49,14.68c26.16,55.9,50.85,112.45,74.05,169.64c18.27,45.04,35.51,90.47,50.9,136.58
				c10.94,32.76,20.9,65.8,28.84,99.43c4.19,17.75,7.71,35.63,10.04,53.71c1.75,13.64,3.02,27.33,4.5,41
				c1,9.22,2.02,18.44,2.99,27.66c0.74,7,1.48,13.99,2.14,21c1.54,16.24,3.01,32.48,4.55,48.72c0.94,9.87,1.97,19.73,2.93,29.6
				c0.74,7.64,1.48,15.28,2.15,22.93c0.9,10.19,1.7,20.4,2.62,30.59c0.92,10.19,1.94,20.37,2.89,30.56
				c0.74,7.96,1.49,15.92,2.17,23.89c0.9,10.52,1.69,21.04,2.61,31.55c0.91,10.51,1.93,21.02,2.89,31.53
				c0.72,7.96,1.44,15.93,2.11,23.89c0.88,10.52,1.68,21.04,2.58,31.56c0.94,11.15,1.95,22.3,2.93,33.45
				c0.78,8.92,1.6,17.84,2.33,26.76c0.89,10.84,1.72,21.68,2.53,32.52c0.78,10.44,0.75,10.38,11.53,9.12
				c6.67-0.78,13.36-1.35,20.05-1.96c1.59-0.15,3.2-0.18,4.79-0.11c1.65,0.08,3.12,0.69,3.97,2.24c0.76,1.4,1.5,2.82,2.17,4.27
				c8,17.08,15.99,34.17,23.96,51.27c0.67,1.44,1.2,2.96,1.61,4.49c0.13,0.47-0.2,1.4-0.6,1.63c-1.65,0.94-3.36,1.81-5.13,2.51
				c-22.31,8.82-44.92,16.8-67.7,24.3c-46.2,15.2-93.09,27.9-140.64,38.12c-22.19,4.77-44.5,8.96-66.94,12.49
				c-18.33,2.88-36.65,5.69-55.11,7.65c-15.27,1.62-30.53,3.3-45.8,4.79c-5.08,0.5-10.21,0.65-15.32,0.66
				c-2.85,0-5.72-0.52-8.56-0.98c-4.73-0.76-9.44-1.67-14.16-2.51c-1.71-0.3-2.48,0.52-2.5,2.65c-0.02,1.73-0.6,2.61-1.87,2.67
				c-9.59,0.48-19.17,1.18-28.76,1.37c-26.88,0.53-53.74,0.57-80.61-0.75c-15.66-0.77-31.31-1.66-46.94-2.78
				c-9.89-0.71-19.74-1.84-29.6-2.88c-6.68-0.7-13.34-1.56-20.01-2.33c-17.16-1.96-34.21-4.68-51.26-7.44
				c-18.31-2.96-36.55-6.31-54.7-10.11c-126.16-26.4-244.36-72.54-352.93-142.45c-83.26-53.6-156.12-118.9-219.19-195.18
				c-59.65-72.14-108.49-151.09-148.14-235.79c-31.12-66.48-55.81-135.3-74.82-206.18c-8.86-33.05-16.4-66.42-22.65-100.06
				c-4.03-21.69-7.47-43.48-10.44-65.34c-2.63-19.34-4.73-38.72-6.7-58.13c-1.13-11.13-1.73-22.32-2.59-33.48
				c-1.3-16.91-1.99-33.85-2.42-50.8c-0.09-3.52-0.22-7.06-1.53-10.38c-0.33-0.83-1.14-1.48-1.72-2.21
				C19.36,1305.11,19.36,1285.28,19.36,1265.44z M1030.81,1769.37c0.33,6.07,0.41,12.16,1.04,18.19
				c1.97,18.79,5.54,37.29,10.05,55.64c7.25,29.53,16.52,58.43,26.74,87.04c15.61,43.67,33.32,86.5,52.12,128.89
				c40.99,92.41,86.51,182.59,134.34,271.62c3.8,7.07,3.5,6.8,11.1,5.75c8.55-1.18,17.07-2.6,25.59-3.95
				c14.21-2.25,28.41-4.55,42.63-6.77c14.22-2.22,28.44-4.37,42.67-6.53c14.54-2.21,29.08-4.42,43.63-6.58
				c15.81-2.36,31.63-4.65,47.45-7c7.59-1.13,15.18-2.28,22.76-3.48c2.46-0.39,3.48-1.55,3.35-3.79c-0.33-5.75-0.67-11.5-1.14-17.23
				c-0.92-11.15-1.98-22.3-2.91-33.45c-0.91-10.84-1.71-21.68-2.61-32.52c-0.69-8.29-1.44-16.57-2.17-24.85
				c-0.96-10.83-1.98-21.66-2.9-32.49c-0.9-10.51-1.7-21.04-2.58-31.55c-0.67-7.97-1.4-15.93-2.13-23.89
				c-0.99-10.83-2.03-21.65-2.99-32.48c-0.9-10.19-1.7-20.4-2.59-30.59c-0.67-7.65-1.4-15.29-2.11-22.93
				c-1.01-10.82-2.06-21.65-3.06-32.47c-0.88-9.55-1.65-19.12-2.57-28.67c-1.57-16.23-3.26-32.45-4.85-48.68
				c-1.53-15.59-2.97-31.2-4.51-46.79c-0.72-7.32-1.56-14.63-2.37-21.94c-0.99-8.9-1.96-17.8-3.03-26.69
				c-0.8-6.67-1.56-13.35-2.65-19.97c-3.45-20.83-8.23-41.37-13.72-61.76c-9.82-36.45-21.57-72.28-34.36-107.77
				c-32.11-89.09-69.19-176.12-108.87-262.08c-1.91-4.14-4.22-7.85-7.84-10.7c-3.25-2.56-6.4-5.26-9.66-7.81
				c-0.18-0.14-1.42,0.5-1.42,0.79c-0.05,2.86-0.15,5.74,0.14,8.58c1.4,13.68,2.9,27.35,4.4,41.01c1.58,14.3,3.25,28.59,4.8,42.9
				c1.58,14.62,3,29.27,4.59,43.89c1.59,14.62,3.35,29.23,4.94,43.85c1.59,14.62,2.99,29.27,4.58,43.89
				c2.22,20.34,4.6,40.67,6.81,61.01c2.24,20.66,4.35,41.34,6.54,62.01c0.78,7.31,1.63,14.62,2.44,21.93
				c0.96,8.58,1.92,17.16,2.87,25.74c1.09,9.85,2.22,19.7,3.22,29.56c0.39,3.81,0.83,7.66,0.67,11.47
				c-0.4,9.46-9.22,17.32-18.68,16.97c-9.02-0.33-16.38-6.88-17.76-15.93c-0.63-4.11-1.1-8.24-1.56-12.37
				c-1.92-17.48-3.83-34.96-5.7-52.45c-2.2-20.67-4.32-41.34-6.54-62.01c-0.88-8.27-1.94-16.51-2.87-24.77
				c-0.82-7.31-1.59-14.62-2.36-21.94c-1.54-14.63-3.02-29.26-4.61-43.89c-1.59-14.62-3.33-29.23-4.92-43.85
				c-1.59-14.62-3.01-29.26-4.6-43.89c-1.59-14.62-3.35-29.23-4.93-43.85c-1.59-14.62-3-29.26-4.58-43.89
				c-2.05-19.07-4.16-38.15-6.33-57.21c-0.37-3.27-0.09-6.38,0.98-9.44c0.52-1.5,1.29-2.92,1.89-4.4c0.46-1.13-0.06-2.58-1.21-3.34
				c-11.8-7.79-24.28-14.21-37.78-18.5c-2.73-0.87-5.58-1.39-8.39-2.02c-1.56-0.35-3.31,0.67-3.84,2.14
				c-2.3,6.36-3.35,13-4.23,19.65c-2.22,16.82-3.22,33.75-3.69,50.7c-0.45,16.3-0.49,32.62-0.5,48.94c0,29.43,0.33,58.85,1.68,88.26
				c1.08,23.64,1.81,47.3,2.71,70.96c0.07,1.92,0.19,3.83,0.3,5.75c0.96,16.6,1.94,33.21,2.89,49.81
				c0.88,15.33,1.73,30.66,2.6,45.98c0.09,1.6,0.24,3.19,0.35,4.79c1,14.04,2.01,28.07,3,42.11c0.87,12.44,1.7,24.89,2.59,37.33
				c0.62,8.61,1.3,17.22,2.02,25.83c0.96,11.47,2.01,22.94,2.96,34.41c0.9,10.84,1.69,21.68,2.59,32.52
				c0.69,8.29,1.48,16.56,2.27,24.84c0.85,8.91,1.76,17.82,2.63,26.73c0.09,0.95,0.14,1.92,0.14,2.87
				c0.01,8.82-5.46,15.89-14.03,18.42c-7.05,2.08-16.39-1.35-20.49-8.81c-1.23-2.24-2.37-4.53-3.5-6.83
				c-11.33-22.94-23.35-45.52-36.12-67.7c-14.37-24.96-29.49-49.44-46.35-72.81c-7.12-9.86-14.44-19.57-22.79-28.44
				c-3.5-3.72-7.29-7.17-11.06-10.62c-2.37-2.17-5.13-3.81-8.15-4.97c-1.04-0.4-2.79,0.25-3.21,1.41c-1.1,2.99-2.32,5.95-3.11,9.02
				C1031.88,1745.07,1030.74,1757.15,1030.81,1769.37z M993.85,968.74c-1.13,0.53-2.34,0.94-3.4,1.62
				c-2.97,1.89-5.88,3.86-8.79,5.84c-16.11,11-32.2,22.03-48.31,33.02c-35.6,24.28-75.04,38.19-117.74,42.83
				c-16.53,1.8-33.13,2.16-49.81,0.84c-22.44-1.78-44.33-5.81-65.63-13.07c-1.51-0.52-3.06-0.92-4.57-1.43
				c-1.38-0.47-2.64-0.04-3.54,0.84c-2.29,2.22-4.44,4.6-6.61,6.95c-50.73,55.01-101.46,110.03-152.18,165.05
				c-1.3,1.41-2.59,2.83-3.89,4.24c-1.56,1.7-2.43,3.7-2.85,5.96c-1.48,7.85-2.92,15.71-4.55,23.53
				c-9.99,47.86-20.29,95.64-31.8,143.16c-1.88,7.76-3.69,15.54-5.58,23.3c-0.51,2.08,0,3.76,1.56,5.18
				c1.89,1.72,3.73,3.51,5.66,5.18c13.34,11.47,26.55,23.08,40.08,34.31c16.49,13.7,33.62,26.56,51.54,38.36
				c10.69,7.04,21.64,13.62,33.14,19.28c8.05,3.96,16.27,7.48,24.93,9.86c6.17,1.7,12.41,3,18.9,2.82
				c6.27-0.17,12.01-1.85,17.02-5.61c3.31-2.49,6.62-5.07,9.53-8.01c5.17-5.22,10.22-10.59,14.99-16.17
				c12.49-14.59,23.71-30.16,34.58-45.98c22.47-32.7,43.07-66.56,62.7-101.01c1.58-2.78,3.12-5.58,4.84-8.28
				c10.3-16.19,24.77-26.35,43.63-30.3c4.42-0.93,8.83-1.37,13.32-1.4c10.55-0.08,21.11-0.19,31.66-0.32
				c2.88-0.03,5.76-0.1,8.63-0.24c2.66-0.13,3.77-1.8,3.12-4.63c-0.28-1.24-0.64-2.47-0.98-3.7c-4.1-15.16-6.78-30.61-8.12-46.22
				c-1.97-22.98-2.05-45.97,1.26-68.9c2.06-14.29,5.26-28.28,10.23-41.82c5.66-15.42,13.3-29.78,24.23-42.17
				c13.2-14.98,23.93-31.59,32.79-49.41c4.4-8.87,8.44-17.93,12.32-27.04c7.14-16.78,12.73-34.12,17.79-51.63
				C994.38,971.99,994.81,970.47,993.85,968.74z M1197.48,2347.35c0.64-1.2,1.09-1.73,1.21-2.33c1.81-9.09,3.6-18.18,5.34-27.28
				c0.37-1.94-0.03-3.81-0.97-5.56c-1.2-2.26-2.39-4.52-3.56-6.8c-14.16-27.59-28.5-55.09-42.45-82.8
				c-28.04-55.7-54.63-112.08-79.22-169.39c-22.57-52.61-43.55-105.83-60.22-160.66c-0.19-0.61-0.39-1.22-0.61-1.82
				c-0.63-1.75-1.87-2.62-3.56-2.43c-0.95,0.1-1.89,0.4-2.84,0.45c-9.85,0.5-17.47-5.09-19.79-14.54c-0.61-2.48-1.12-4.99-1.59-7.51
				c-7.15-38.37-16.26-76.27-27.34-113.69c-5.99-20.23-12.63-40.26-20.79-59.74c-3.21-7.67-6.55-15.3-10.8-22.45
				c-2.28-3.84-4.76-7.6-7.55-11.07c-4.4-5.46-6.36-5.35-9.95,0.29c-2.23,3.5-4.29,7.13-6.11,10.86
				c-5.35,10.96-9.2,22.45-11.9,34.36c-4.47,19.73-6.43,39.78-7.27,59.92c-1.36,32.95-0.16,65.88,2.14,98.77
				c0.6,8.61,1.35,17.22,2.16,25.81c0.87,9.23,1.86,18.45,2.88,27.67c1.47,13.35,2.89,26.7,4.56,40.03
				c1.67,13.32,3.57,26.62,5.45,39.91c1.3,9.18,2.77,18.33,4.07,27.51c0.73,5.16,2.55,9.72,5.51,14.09
				c12.04,17.73,23.89,35.58,35.7,53.47c65.21,98.75,128.83,198.53,191.54,298.89c1.69,2.71,3.41,5.41,5.15,8.09
				c0.91,1.4,2.24,2.2,3.91,2.5c6.92,1.23,13.84,2.52,20.77,3.73c4.09,0.72,8.19,1.38,12.3,1.98c1.79,0.26,3.18-0.68,3.56-2.39
				c1.04-4.68,2-9.37,2.99-14.06c0.81-3.83,0.57-7.56-0.59-11.35c-2.16-7.03-4.07-14.13-6-21.22c-0.66-2.43-1.04-4.94-1.61-7.69
				C1186.97,2348.68,1192.14,2348.55,1197.48,2347.35z M1139.55,1502.47c-0.06,0-0.12,0-0.18,0.01c-0.11-4.15-0.26-8.31-0.34-12.46
				c-0.66-35.79-0.95-71.59-0.25-107.39c0.06-3.19,0.05-6.39,0.02-9.58c-0.01-0.83-0.45-1.22-1.07-1.07
				c-0.26,0.06-0.64,0.23-0.71,0.43c-0.74,2.1-1.52,4.2-2.13,6.35c-15.87,55.94-29.49,112.44-42.24,169.16
				c-7.63,33.96-14.91,68.01-22.26,102.03c-2.83,13.11-5.46,26.27-8.15,39.41c-0.41,2.02,0.06,3.73,1.92,4.97
				c14.51,9.7,26.35,22.21,37.43,35.52c9.01,10.82,17.43,22.09,25.16,33.85c8.42,12.82,16.46,25.88,24.65,38.85
				c1.36,2.16,2.64,4.37,4.04,6.51c0.29,0.44,0.99,0.86,1.47,0.83c0.36-0.02,0.98-0.78,0.97-1.21c-0.07-3.19-0.19-6.39-0.42-9.57
				c-0.55-7.33-1.18-14.65-1.76-21.98c-0.78-9.88-1.55-19.75-2.32-29.63c-0.99-12.74-2.05-25.48-2.94-38.23
				c-0.96-13.71-1.77-27.43-2.6-41.14c-1.25-20.41-2.46-40.83-3.68-61.25c-0.11-1.91-0.23-3.83-0.33-5.74
				c-0.99-19.47-2.08-38.94-2.94-58.41C1140.28,1529.31,1139.98,1515.89,1139.55,1502.47z M410.12,1679.63
				c5.28,1.06,10.64,0.81,16,0.29c1.02-0.1,1.95-1.39,1.97-2.89c0.23-16.87,0.44-33.74,0.64-50.61c0-0.3-0.15-0.62-0.28-0.89
				c-0.12-0.25-0.29-0.6-0.51-0.66c-0.76-0.2-1.25,0.12-1.47,0.79c-5.51,17.27-11.03,34.55-16.51,51.83
				C409.79,1678.05,410.05,1678.74,410.12,1679.63z"/>
			<path d="M81.51,903.36c-0.64-1.1-0.99-2.32-0.68-3.54c1.35-5.33,2.63-10.68,5.16-15.62c0.11-0.22,0.53-0.28,0.81-0.42l-0.23-0.2
				c-0.05,1.23,0.15,2.55-0.21,3.69c-1.67,5.29-2.75,10.78-5.08,15.87C81.31,903.17,81.51,903.36,81.51,903.36z"/>
			<path d="M877.2,111.11c0.42-1.75,1.25-3,3.3-3.06c0.48-0.01,0.94-0.55,1.42-0.85l-0.04,0.04c-0.62,1.03-1.1,2.11-2.53,2.42
				c-0.81,0.17-1.52,0.88-2.27,1.35L877.2,111.11z"/>
			<path d="M877.08,111.01c-2.93,0.33-5.87,0.66-8.81,0.98c-0.01-0.01,0.2,0.22,0.2,0.22c0.96-1.44,2.37-2.11,4.02-1.98
				c1.55,0.12,3.07,0.53,4.66,0.85C877.2,111.11,877.08,111.01,877.08,111.01z"/>
			<path d="M881.92,107.2c0.89-0.1,1.79-0.21,2.68-0.31c0.31-0.04,0.8-0.21,0.88-0.09c0.44,0.64,0.12,0.86-0.83,0.71
				c-0.91-0.14-1.84-0.18-2.77-0.26C881.88,107.24,881.92,107.2,881.92,107.2z"/>
			<path d="M862.01,113.61c1.78-2.14,4.12-1.74,6.45-1.41c0.01,0.01-0.2-0.22-0.19-0.21c-1.78,2.09-4.09,1.86-6.44,1.42
				C861.82,113.39,862.01,113.61,862.01,113.61z"/>
			<path d="M86.8,883.78c0.08-1.39,0.06-2.8,0.27-4.18c0.14-0.92,1-1.24,1.87-1.37c0,0-0.22-0.21-0.22-0.21
				c-0.17,1.2-0.18,2.45-0.56,3.58c-0.26,0.75-1.04,1.32-1.59,1.98C86.57,883.59,86.8,883.78,86.8,883.78z"/>
			<path d="M88.94,878.24c-0.06-1.15-0.24-2.31-0.15-3.45c0.11-1.35,1.04-1.98,2.37-2.02l-0.2-0.21c-0.86,1.77-0.37,4.1-2.25,5.46
				C88.72,878.03,88.94,878.24,88.94,878.24z"/>
			<path d="M91.16,872.76c-0.76-1.43-0.79-2.94-0.3-4.44c0.3-0.95,1.1-1.35,2.05-1.46c-0.02-0.02-0.24-0.25-0.24-0.25
				c-0.59,1.96-1.17,3.92-1.73,5.9C90.96,872.55,91.16,872.76,91.16,872.76z"/>
			<path d="M94.95,861.23c-0.78,1.78-1.55,3.57-2.31,5.37c0.02,0.02,0.24,0.25,0.25,0.27c-0.12-0.84-0.38-1.7-0.38-2.56
				c-0.01-1.69,0.86-2.71,2.61-2.88L94.95,861.23z"/>
			<path d="M95.12,861.43c-0.19-1.18-0.52-2.36-0.55-3.54c-0.03-1.39,0.9-2.16,2.22-2.45l-0.2-0.23c-0.57,1.98-1.14,3.96-1.68,5.98
				C94.95,861.23,95.12,861.43,95.12,861.43z"/>
			<path d="M96.79,855.44c-0.51-2.29-1.11-4.61,1.78-5.87l-0.21-0.23c-0.5,1.98-0.36,4.15-1.79,5.85
				C96.6,855.21,96.79,855.44,96.79,855.44z"/>
			<path d="M98.58,849.57c-0.49-2.29-0.48-4.46,1.42-6.2l-0.28-0.25c0.1,2.19,0.43,4.43-1.38,6.21
				C98.37,849.34,98.58,849.57,98.58,849.57z"/>
			<path d="M104.91,835.1c-0.41,0.37-0.95,0.66-1.2,1.11c-0.57,1.02-1,2.11-1.5,3.17c-0.01-0.01,0.3,0.24,0.3,0.24
				c-0.04-0.29-0.09-0.58-0.1-0.87c-0.11-2.52-0.11-2.52,2.49-3.63C104.91,835.12,104.91,835.1,104.91,835.1z"/>
			<path d="M104.91,835.12c-0.1-0.6-0.1-1.23-0.32-1.79c-0.85-2.24,0.3-3.38,2.19-4.15l-0.11-0.16c-1.6,1.73-1.99,3.81-1.76,6.08
				C104.91,835.1,104.91,835.12,104.91,835.12z"/>
			<path d="M106.78,829.17c-0.89-2.43-1.01-4.75,1-6.76l-0.27-0.25c-0.3,2.24-0.61,4.49-0.88,6.79
				C106.68,829.02,106.78,829.17,106.78,829.17z"/>
			<path d="M109.77,818.07c0.02-1.93,0.44-3.62,2.62-4.21l0.03-0.11c-0.97,1.35-1.95,2.7-2.92,4.06
				C109.5,817.83,109.77,818.07,109.77,818.07z"/>
			<polygon points="894.38,105.21 893.58,105.34 893.72,104.87 			"/>
			<path d="M114.53,801.45l1.67-0.47c-0.53,0.14-1.05,0.28-1.58,0.42L114.53,801.45z"/>
			<path d="M114.63,801.4c0.02,0.56,0.04,1.12,0.05,1.68c0.06-0.27,0.18-0.55,0.16-0.81c-0.03-0.28-0.19-0.54-0.3-0.82
				C114.53,801.45,114.63,801.4,114.63,801.4z"/>
			<path d="M112.39,813.86c-0.11-0.55-0.23-1.09-0.33-1.64c-0.05-0.27-0.16-0.72-0.04-0.8c0.69-0.46,0.8-0.23,0.47,0.65
				c-0.18,0.47-0.08,1.04-0.09,1.63C112.42,813.76,112.39,813.86,112.39,813.86z"/>
			<path d="M118.38,791.91c0.41-0.13,0.82-0.26,1.22-0.39c-0.18-0.06-0.4-0.21-0.53-0.15c-0.21,0.09-0.37,0.32-0.55,0.5
				C118.52,791.86,118.38,791.91,118.38,791.91z"/>
			<path d="M107.78,822.42c0.29-1.61,0.1-3.45,1.99-4.34c0-0.01-0.27-0.25-0.27-0.26c-0.3,1.6,0.04,3.51-1.99,4.34
				C107.51,822.17,107.78,822.42,107.78,822.42z"/>
			<path d="M124.06,784.78c-0.37-0.57-0.79-0.59-1.16,0.02c-0.11,0.17-0.09,0.62,0.02,0.69c0.59,0.36,0.91,0.13,0.89-0.59
				L124.06,784.78z"/>
			<path d="M123.8,784.9c0.03-0.46,0.06-0.92,0.08-1.37c-1.44,0.57-0.44,0.89,0.15,1.26C124.06,784.78,123.8,784.9,123.8,784.9z"/>
			<path d="M100,843.36c0.09-0.57,0.18-1.14,0.26-1.71c0.19-1.29,0.87-2.04,2.25-2.04c0.01,0.01-0.3-0.24-0.29-0.24
				c-0.23,0.79-0.34,1.66-0.77,2.32c-0.39,0.59-1.13,0.95-1.72,1.42C99.73,843.12,100,843.36,100,843.36z"/>
			<path d="M129.99,770.96c-0.17-0.22-0.33-0.62-0.51-0.63c-0.69-0.01-1.07,0.45-0.94,1.17c0.15,0.78,0.65,0.96,1.2,0.45
				c0.13-0.12-0.02-0.54-0.04-0.82L129.99,770.96z"/>
			<path d="M129.71,771.14c0.67-0.36,0.78-0.86,0.2-1.31c-0.64-0.49-1.24-0.29-1.25,0.44c-0.01,0.77,0.54,1.01,1.31,0.7
				C129.99,770.96,129.71,771.14,129.71,771.14z"/>
			<path d="M135.77,757.29c-0.3-0.71-0.79-0.88-1.36-0.38c-0.18,0.16-0.34,0.61-0.24,0.79c0.24,0.44,0.67,1.14,0.96,1.11
				c0.76-0.07,0.86-0.66,0.36-1.31L135.77,757.29z"/>
			<path d="M135.48,757.5c0.65-0.29,0.81-0.79,0.25-1.17c-0.33-0.22-0.91-0.08-1.37-0.05c-0.03,0-0.1,0.64-0.03,0.66
				c0.45,0.17,0.92,0.26,1.42,0.36C135.77,757.29,135.48,757.5,135.48,757.5z"/>
			<path d="M118.52,791.86c0.01,0.57,0.02,1.14,0.03,1.71c-0.05-0.55-0.1-1.1-0.16-1.65C118.38,791.91,118.52,791.86,118.52,791.86z
				"/>
			<path class="st0" d="M1030.81,1769.37c-0.07-12.22,1.07-24.29,4.1-36.14c0.79-3.07,2.01-6.04,3.11-9.02
				c0.43-1.16,2.17-1.81,3.21-1.41c3.02,1.17,5.78,2.81,8.15,4.97c3.77,3.45,7.56,6.91,11.06,10.62
				c8.35,8.87,15.67,18.57,22.79,28.44c16.86,23.37,31.98,47.85,46.35,72.81c12.77,22.18,24.78,44.76,36.12,67.7
				c1.13,2.29,2.27,4.59,3.5,6.83c4.11,7.46,13.45,10.89,20.49,8.81c8.57-2.53,14.04-9.59,14.03-18.42c0-0.96-0.05-1.92-0.14-2.87
				c-0.87-8.91-1.78-17.82-2.63-26.73c-0.79-8.28-1.57-16.55-2.27-24.84c-0.91-10.84-1.7-21.68-2.59-32.52
				c-0.95-11.47-2-22.94-2.96-34.41c-0.72-8.61-1.4-17.21-2.02-25.83c-0.9-12.44-1.72-24.89-2.59-37.33c-0.99-14.04-2-28.07-3-42.11
				c-0.11-1.6-0.26-3.19-0.35-4.79c-0.87-15.33-1.72-30.66-2.6-45.98c-0.95-16.6-1.93-33.21-2.89-49.81
				c-0.11-1.92-0.23-3.83-0.3-5.75c-0.89-23.65-1.62-47.31-2.71-70.96c-1.35-29.41-1.68-58.83-1.68-88.26
				c0-16.31,0.04-32.63,0.5-48.94c0.47-16.94,1.46-33.88,3.69-50.7c0.88-6.65,1.93-13.29,4.23-19.65c0.53-1.48,2.28-2.49,3.84-2.14
				c2.81,0.63,5.65,1.15,8.39,2.02c13.51,4.29,25.98,10.72,37.78,18.5c1.15,0.76,1.67,2.2,1.21,3.34c-0.6,1.48-1.37,2.89-1.89,4.4
				c-1.07,3.06-1.35,6.18-0.98,9.44c2.17,19.06,4.27,38.13,6.33,57.21c1.58,14.62,2.99,29.27,4.58,43.89
				c1.59,14.62,3.34,29.23,4.93,43.85c1.59,14.62,3.02,29.26,4.6,43.89c1.59,14.62,3.33,29.23,4.92,43.85
				c1.59,14.62,3.07,29.26,4.61,43.89c0.77,7.31,1.53,14.63,2.36,21.94c0.93,8.26,1.99,16.51,2.87,24.77
				c2.21,20.67,4.33,41.34,6.54,62.01c1.86,17.49,3.78,34.97,5.7,52.45c0.45,4.13,0.93,8.27,1.56,12.37
				c1.38,9.05,8.74,15.61,17.76,15.93c9.46,0.34,18.29-7.52,18.68-16.97c0.16-3.81-0.28-7.66-0.67-11.47
				c-1.01-9.86-2.13-19.71-3.22-29.56c-0.95-8.58-1.91-17.16-2.87-25.74c-0.82-7.31-1.67-14.61-2.44-21.93
				c-2.19-20.67-4.3-41.35-6.54-62.01c-2.21-20.34-4.59-40.67-6.81-61.01c-1.6-14.62-2.99-29.27-4.58-43.89
				c-1.59-14.62-3.35-29.23-4.94-43.85c-1.59-14.62-3.01-29.26-4.59-43.89c-1.55-14.31-3.22-28.6-4.8-42.9
				c-1.51-13.67-3-27.34-4.4-41.01c-0.29-2.84-0.19-5.72-0.14-8.58c0.01-0.29,1.24-0.93,1.42-0.79c3.26,2.55,6.4,5.25,9.66,7.81
				c3.62,2.85,5.93,6.57,7.84,10.7c39.68,85.95,76.76,172.99,108.87,262.08c12.79,35.49,24.55,71.33,34.36,107.77
				c5.49,20.38,10.27,40.92,13.72,61.76c1.1,6.62,1.85,13.3,2.65,19.97c1.07,8.89,2.04,17.79,3.03,26.69
				c0.81,7.31,1.65,14.62,2.37,21.94c1.54,15.59,2.98,31.2,4.51,46.79c1.59,16.23,3.28,32.45,4.85,48.68
				c0.93,9.55,1.69,19.11,2.57,28.67c1,10.83,2.04,21.65,3.06,32.47c0.72,7.64,1.45,15.28,2.11,22.93
				c0.89,10.19,1.69,20.4,2.59,30.59c0.96,10.83,2,21.65,2.99,32.48c0.73,7.96,1.46,15.92,2.13,23.89
				c0.89,10.52,1.68,21.04,2.58,31.55c0.93,10.83,1.94,21.66,2.9,32.49c0.74,8.28,1.49,16.56,2.17,24.85
				c0.9,10.84,1.7,21.68,2.61,32.52c0.93,11.15,1.99,22.3,2.91,33.45c0.47,5.74,0.81,11.48,1.14,17.23c0.13,2.24-0.89,3.4-3.35,3.79
				c-7.58,1.2-15.17,2.35-22.76,3.48c-15.81,2.35-31.63,4.64-47.45,7c-14.55,2.17-29.09,4.37-43.63,6.58
				c-14.23,2.16-28.45,4.31-42.67,6.53c-14.22,2.22-28.42,4.52-42.63,6.77c-8.53,1.35-17.04,2.77-25.59,3.95
				c-7.6,1.05-7.3,1.32-11.1-5.75c-47.84-89.03-93.35-179.21-134.34-271.62c-18.8-42.39-36.51-85.22-52.12-128.89
				c-10.23-28.61-19.49-57.51-26.74-87.04c-4.51-18.34-8.08-36.85-10.05-55.64C1031.22,1781.53,1031.14,1775.43,1030.81,1769.37z"/>
			<path class="st0" d="M993.85,968.74c0.96,1.74,0.53,3.25,0.08,4.81c-5.06,17.51-10.65,34.84-17.79,51.63
				c-3.88,9.11-7.91,18.17-12.32,27.04c-8.85,17.82-19.58,34.43-32.79,49.41c-10.93,12.39-18.57,26.75-24.23,42.17
				c-4.97,13.54-8.17,27.53-10.23,41.82c-3.31,22.93-3.23,45.92-1.26,68.9c1.34,15.61,4.01,31.06,8.12,46.22
				c0.33,1.23,0.7,2.46,0.98,3.7c0.64,2.83-0.46,4.5-3.12,4.63c-2.87,0.14-5.75,0.21-8.63,0.24c-10.55,0.12-21.11,0.23-31.66,0.32
				c-4.49,0.04-8.9,0.48-13.32,1.4c-18.85,3.95-33.33,14.11-43.63,30.3c-1.71,2.7-3.25,5.5-4.84,8.28
				c-19.64,34.46-40.24,68.31-62.7,101.01c-10.87,15.82-22.09,31.39-34.58,45.98c-4.78,5.58-9.82,10.95-14.99,16.17
				c-2.91,2.94-6.22,5.51-9.53,8.01c-5.01,3.76-10.74,5.44-17.02,5.61c-6.49,0.18-12.73-1.12-18.9-2.82
				c-8.66-2.38-16.88-5.9-24.93-9.86c-11.5-5.66-22.45-12.24-33.14-19.28c-17.91-11.8-35.05-24.66-51.54-38.36
				c-13.53-11.24-26.74-22.85-40.08-34.31c-1.94-1.67-3.77-3.45-5.66-5.18c-1.56-1.42-2.06-3.1-1.56-5.18
				c1.89-7.76,3.7-15.54,5.58-23.3c11.5-47.52,21.81-95.31,31.8-143.16c1.63-7.82,3.06-15.68,4.55-23.53
				c0.43-2.26,1.29-4.27,2.85-5.96c1.3-1.41,2.59-2.83,3.89-4.24c50.73-55.02,101.45-110.04,152.18-165.05
				c2.17-2.35,4.32-4.72,6.61-6.95c0.9-0.87,2.16-1.31,3.54-0.84c1.51,0.52,3.06,0.92,4.57,1.43c21.3,7.26,43.2,11.29,65.63,13.07
				c16.68,1.32,33.28,0.96,49.81-0.84c42.7-4.64,82.14-18.55,117.74-42.83c16.11-10.99,32.2-22.02,48.31-33.02
				c2.9-1.98,5.82-3.95,8.79-5.84C991.5,969.68,992.72,969.27,993.85,968.74z"/>
			<path class="st0" d="M1197.48,2347.35c-5.33,1.19-10.51,1.33-15.46,3.53c0.57,2.75,0.95,5.26,1.61,7.69
				c1.92,7.09,3.84,14.2,6,21.22c1.16,3.79,1.4,7.51,0.59,11.35c-0.99,4.69-1.94,9.39-2.99,14.06c-0.38,1.71-1.77,2.65-3.56,2.39
				c-4.11-0.6-8.21-1.26-12.3-1.98c-6.93-1.21-13.84-2.49-20.77-3.73c-1.66-0.3-3-1.1-3.91-2.5c-1.74-2.68-3.46-5.38-5.15-8.09
				c-62.71-100.36-126.33-200.13-191.54-298.89c-11.81-17.88-23.66-35.74-35.7-53.47c-2.96-4.37-4.78-8.93-5.51-14.09
				c-1.3-9.18-2.77-18.33-4.07-27.51c-1.88-13.3-3.78-26.59-5.45-39.91c-1.67-13.32-3.09-26.68-4.56-40.03
				c-1.02-9.22-2.01-18.44-2.88-27.67c-0.81-8.6-1.56-17.2-2.16-25.81c-2.3-32.89-3.5-65.81-2.14-98.77
				c0.83-20.14,2.8-40.19,7.27-59.92c2.7-11.9,6.55-23.39,11.9-34.36c1.82-3.73,3.88-7.36,6.11-10.86c3.6-5.64,5.56-5.75,9.95-0.29
				c2.79,3.47,5.27,7.24,7.55,11.07c4.25,7.16,7.59,14.78,10.8,22.45c8.16,19.48,14.8,39.51,20.79,59.74
				c11.08,37.42,20.19,75.32,27.34,113.69c0.47,2.51,0.98,5.02,1.59,7.51c2.32,9.44,9.95,15.03,19.79,14.54
				c0.95-0.05,1.89-0.34,2.84-0.45c1.69-0.18,2.93,0.69,3.56,2.43c0.22,0.6,0.42,1.21,0.61,1.82
				c16.67,54.83,37.64,108.05,60.22,160.66c24.59,57.31,51.18,113.69,79.22,169.39c13.95,27.7,28.28,55.2,42.45,82.8
				c1.17,2.28,2.35,4.54,3.56,6.8c0.93,1.76,1.34,3.63,0.97,5.56c-1.74,9.1-3.53,18.19-5.34,27.28
				C1198.57,2345.62,1198.11,2346.15,1197.48,2347.35z"/>
			<path class="st0" d="M1139.55,1502.47c0.43,13.42,0.73,26.84,1.33,40.25c0.87,19.48,1.95,38.94,2.94,58.41
				c0.1,1.92,0.21,3.83,0.33,5.74c1.23,20.42,2.44,40.83,3.68,61.25c0.84,13.72,1.65,27.43,2.6,41.14
				c0.89,12.75,1.95,25.49,2.94,38.23c0.77,9.88,1.54,19.75,2.32,29.63c0.58,7.33,1.22,14.65,1.76,21.98
				c0.24,3.18,0.36,6.38,0.42,9.57c0.01,0.42-0.61,1.18-0.97,1.21c-0.48,0.03-1.18-0.39-1.47-0.83c-1.4-2.13-2.68-4.35-4.04-6.51
				c-8.19-12.96-16.23-26.03-24.65-38.85c-7.72-11.76-16.15-23.03-25.16-33.85c-11.08-13.31-22.92-25.82-37.43-35.52
				c-1.86-1.25-2.34-2.96-1.92-4.97c2.69-13.14,5.31-26.3,8.15-39.41c7.36-34.03,14.63-68.07,22.26-102.03
				c12.75-56.72,26.37-113.22,42.24-169.16c0.61-2.15,1.39-4.24,2.13-6.35c0.07-0.21,0.45-0.37,0.71-0.43
				c0.62-0.15,1.06,0.24,1.07,1.07c0.02,3.19,0.04,6.39-0.02,9.58c-0.7,35.8-0.41,71.59,0.25,107.39c0.08,4.15,0.22,8.31,0.34,12.46
				C1139.43,1502.48,1139.49,1502.48,1139.55,1502.47z"/>
			<path class="st0" d="M410.12,1679.63c-0.08-0.89-0.33-1.58-0.16-2.13c5.48-17.29,10.99-34.56,16.51-51.83
				c0.22-0.67,0.71-0.99,1.47-0.79c0.22,0.06,0.39,0.41,0.51,0.66c0.14,0.28,0.29,0.59,0.28,0.89c-0.2,16.87-0.4,33.74-0.64,50.61
				c-0.02,1.49-0.95,2.79-1.97,2.89C420.76,1680.43,415.4,1680.68,410.12,1679.63z"/>
		</g>
	</g>
</g>
</svg>
